<svg width="20" height="20" viewBox="0 0 20 20" fill="none" xmlns="http://www.w3.org/2000/svg">
<path fill-rule="evenodd" clip-rule="evenodd" d="M11.631 6.44448C11.7001 6.37865 11.7885 6.34115 11.8751 6.34115H14.1251C14.356 6.34115 14.5418 6.15448 14.5418 5.92448V2.92448C14.5418 2.69448 14.356 2.50781 14.1251 2.50781H11.8751C10.7868 2.50781 9.71345 2.94948 8.92845 3.72198C8.14183 4.51365 7.7085 5.56198 7.7085 6.67448V8.50865H5.87516C5.64433 8.50865 5.4585 8.69449 5.4585 8.92532V11.9245C5.4585 12.1553 5.64433 12.3412 5.87516 12.3412H7.7085V17.9245C7.7085 18.1553 7.89516 18.3412 8.12516 18.3412H11.1251C11.3551 18.3412 11.5418 18.1553 11.5418 17.9245V12.3412H14.1251C14.356 12.3412 14.5418 12.1553 14.5418 11.9245V8.92532C14.5418 8.69449 14.356 8.50865 14.1251 8.50865H11.5418V6.67448C11.5418 6.58448 11.5768 6.49948 11.631 6.44448Z" fill="white"/>
</svg>
