<svg width="20" height="20" viewBox="0 0 20 20" fill="none" xmlns="http://www.w3.org/2000/svg">
<path fill-rule="evenodd" clip-rule="evenodd" d="M9.87038 8.40625C8.60538 8.40625 7.57617 9.43375 7.57617 10.6979C7.57617 11.9621 8.60538 12.9896 9.87038 12.9896C11.1354 12.9896 12.1637 11.9621 12.1637 10.6979C12.1637 9.43375 11.1354 8.40625 9.87038 8.40625Z" fill="white"/>
<path fill-rule="evenodd" clip-rule="evenodd" d="M14.053 7.43198C13.578 7.43198 13.1905 7.04698 13.1905 6.57448C13.1905 6.10031 13.578 5.71531 14.053 5.71531C14.528 5.71531 14.9147 6.10031 14.9147 6.57448C14.9147 7.04698 14.528 7.43198 14.053 7.43198ZM9.86967 14.2412C7.91634 14.2412 6.32634 12.6528 6.32634 10.6995C6.32634 8.74615 7.91634 7.15781 9.86967 7.15781C11.8238 7.15781 13.413 8.74615 13.413 10.6995C13.413 12.6528 11.8238 14.2412 9.86967 14.2412ZM13.5138 2.50781H6.48467C3.85217 2.50781 2.08301 4.35948 2.08301 7.11615V13.7328C2.08301 16.4887 3.85217 18.3412 6.48467 18.3412H13.513C16.1463 18.3412 17.9163 16.4887 17.9163 13.7328V7.11615C17.9163 4.35948 16.1472 2.50781 13.5138 2.50781Z" fill="white"/>
</svg>
