<svg width="20" height="20" viewBox="0 0 20 20" fill="none" xmlns="http://www.w3.org/2000/svg">
<path d="M4.15146 5.99823C5.15846 5.99823 5.97479 5.18189 5.97479 4.1749C5.97479 3.1679 5.15846 2.35156 4.15146 2.35156C3.14446 2.35156 2.32812 3.1679 2.32812 4.1749C2.32812 5.18189 3.14446 5.99823 4.15146 5.99823Z" fill="white"/>
<path d="M7.69646 7.37891V17.4947H10.8373V12.4922C10.8373 11.1722 11.0856 9.89391 12.7223 9.89391C14.3365 9.89391 14.3565 11.4031 14.3565 12.5756V17.4956H17.499V11.9481C17.499 9.22307 16.9123 7.12891 13.7273 7.12891C12.1981 7.12891 11.1731 7.96807 10.754 8.76224H10.7115V7.37891H7.69646ZM2.57812 7.37891H5.72396V17.4947H2.57812V7.37891Z" fill="white"/>
</svg>
