<svg width="20" height="20" viewBox="0 0 20 20" fill="none" xmlns="http://www.w3.org/2000/svg">
<path fill-rule="evenodd" clip-rule="evenodd" d="M12.3061 11.1429L9.24608 12.8846C9.11858 12.9538 8.98191 12.9879 8.84691 12.9879C8.70275 12.9879 8.56025 12.9488 8.43191 12.8721C8.18521 12.7254 8.03771 12.4679 8.03771 12.1813V8.6971C8.03771 8.40543 8.18938 8.14213 8.44275 7.9963C8.69441 7.85047 8.99441 7.8488 9.24775 7.99463L12.3061 9.73627C12.5577 9.87793 12.7144 10.1488 12.7144 10.4388C12.7144 10.7304 12.5577 10.9996 12.3061 11.1429ZM17.5544 6.15797C17.3386 5.2663 16.6652 4.55297 15.7977 4.29213C14.3252 3.8063 5.55771 3.8338 4.21438 4.3213C3.34355 4.56963 2.66605 5.2863 2.45688 6.15463C1.96355 7.59713 1.96355 13.2996 2.44938 14.7263C2.69105 15.5971 3.36771 16.2863 4.18688 16.5138C4.90771 16.7754 7.48188 16.9046 10.0411 16.9046C12.5836 16.9046 15.1127 16.7771 15.7911 16.5221C16.6619 16.2638 17.3377 15.5479 17.5436 14.6929C18.0352 13.2779 18.0369 7.59047 17.5544 6.15797Z" fill="white"/>
</svg>
