<svg width="193" height="48" viewBox="0 0 193 48" fill="none" xmlns="http://www.w3.org/2000/svg">
<path fill-rule="evenodd" clip-rule="evenodd" d="M21.6797 2.01388C22.1267 1.78062 22.6611 1.7876 23.1019 2.03247L33.2284 7.65748C33.7046 7.92204 34 8.42403 34 8.96885L33.9993 20.2184C33.9993 20.7772 33.6886 21.2897 33.1932 21.5482L7.31963 35.0478C6.87251 35.2811 6.33809 35.2741 5.89725 35.0291L-4.22655 29.4043C-4.70264 29.1397 -4.99794 28.638 -4.99804 28.0933L-5 16.8436C-5.0001 16.2847 -4.68941 15.7721 -4.19386 15.5135L21.6797 2.01388ZM-1.99984 17.7526L-1.99847 25.6188L20.8753 13.6842L20.874 5.81805L-1.99984 17.7526ZM23.874 5.89309L23.8753 13.7108L30.9995 17.669L30.9999 9.85139L23.874 5.89309ZM29.3361 20.1768L22.3531 16.297L-0.334875 28.1346L6.64812 32.0144L29.3361 20.1768Z" fill="#1570EF"/>
<path opacity="0.5" fill-rule="evenodd" clip-rule="evenodd" d="M7.32034 46.2986C6.87327 46.5319 6.33891 46.5249 5.89809 46.28L-4.22837 40.655C-4.70465 40.3905 -5.00003 39.8885 -4.99999 39.3436L-4.99929 28.0941C-4.99926 27.5353 -4.68859 27.0228 -4.19316 26.7643L21.6804 13.2647C22.1275 13.0314 22.6619 13.0384 23.1028 13.2834L33.2266 18.9082C33.7026 19.1728 33.9979 19.6745 33.998 20.2192L34 31.4689C34.0001 32.0278 33.6894 32.5404 33.1939 32.799L7.32034 46.2986ZM30.9998 30.5599L30.9985 22.6937L8.12467 34.6282L8.12604 42.4944L30.9998 30.5599ZM5.12603 42.4194L5.12466 34.6017L-1.99945 30.6435L-1.99994 38.4611L5.12603 42.4194ZM-0.336134 28.1357L6.64686 32.0155L29.3349 20.1779L22.3519 16.2981L-0.336134 28.1357Z" fill="#1570EF"/>
<path d="M60.065 26.9791C60.065 30.6781 57.095 33.2701 52.235 33.2701C47.348 33.2701 44.297 30.6511 44 26.5471H48.158C48.266 28.6801 49.643 30.0571 52.154 30.0571C54.233 30.0571 55.718 29.1391 55.718 27.5731C55.718 26.3581 54.773 25.6291 53.126 25.3051L49.94 24.6841C46.997 24.1171 44.729 22.5241 44.729 19.3111C44.729 15.8551 47.78 13.3711 51.965 13.3711C56.312 13.3711 59.498 15.9091 59.768 19.9591H55.61C55.475 17.9341 54.071 16.5571 52.019 16.5571C50.021 16.5571 48.887 17.6911 48.887 19.0411C48.887 20.3641 50.102 20.9311 51.506 21.2011L54.827 21.8761C58.229 22.5511 60.065 24.1171 60.065 26.9791Z" fill="#0A0D12"/>
<path d="M70.7568 29.3551V32.6221C69.8388 33.0811 68.9748 33.2701 67.8678 33.2701C64.8978 33.2701 63.0348 31.5691 63.0348 28.3291V21.7951H60.1188V18.5821H63.0348V14.3161H66.7608V18.5821H70.8918V21.7951H66.7608V27.4651C66.7608 29.1391 67.5168 29.8141 68.8668 29.8141C69.5688 29.8141 70.2168 29.6521 70.7568 29.3551Z" fill="#0A0D12"/>
<path d="M80.6894 33.0001V31.2181C79.7444 32.5681 78.3134 33.2701 76.3424 33.2701C73.3454 33.2701 71.3474 31.5151 71.3474 28.8151C71.3474 26.0071 73.6154 24.4951 77.8274 24.4951C78.6374 24.4951 79.3394 24.5491 80.2304 24.6571V23.7931C80.2304 22.1731 79.3124 21.2281 77.7464 21.2281C76.1264 21.2281 75.1544 22.1731 75.0194 23.7931H71.6444C71.8604 20.4721 74.2634 18.3121 77.7464 18.3121C81.5264 18.3121 83.7404 20.3911 83.7404 23.9281V33.0001H80.6894ZM74.8844 28.7071C74.8844 29.9221 75.7484 30.6781 77.1524 30.6781C79.0694 30.6781 80.2304 29.6251 80.2304 27.9511V26.9251C79.3394 26.7901 78.7184 26.7361 78.0704 26.7361C75.9374 26.7361 74.8844 27.4111 74.8844 28.7071Z" fill="#0A0D12"/>
<path d="M91.9695 33.2701C87.8115 33.2701 84.9495 30.1921 84.9495 25.7911C84.9495 21.4711 87.9195 18.3121 91.9695 18.3121C95.7225 18.3121 98.5035 20.8501 98.9625 24.7381H95.0205C94.8315 22.8211 93.6705 21.6331 91.9695 21.6331C90.0255 21.6331 88.7835 23.2261 88.7835 25.7911C88.7835 28.3831 89.9985 29.9491 91.9695 29.9491C93.6975 29.9491 94.8045 28.8151 95.0205 26.8441H98.9625C98.5305 30.8131 95.8305 33.2701 91.9695 33.2701Z" fill="#0A0D12"/>
<path d="M104.045 33.0001H100.292V13.6141H104.045V24.6841L109.31 18.5821H113.63L107.663 25.4941L114.332 33.0001H109.553L104.045 26.3041V33.0001Z" fill="#0A0D12"/>
<path d="M128.538 25.7911C128.538 21.5251 131.049 18.3121 134.937 18.3121C136.665 18.3121 138.123 19.0681 139.203 20.4451V13.6141H142.929V33.0001H139.5V30.9211C138.366 32.4331 136.8 33.2701 134.937 33.2701C131.049 33.2701 128.538 30.0031 128.538 25.7911ZM132.399 25.7911C132.399 28.4911 133.938 29.9221 135.774 29.9221C137.637 29.9221 139.176 28.4641 139.176 25.7371C139.176 23.0101 137.61 21.6331 135.774 21.6331C133.938 21.6331 132.399 23.0371 132.399 25.7911Z" fill="#0A0D12"/>
<path d="M162.613 33.0001H150.085V13.6141H154.189V29.3011H162.613V33.0001Z" fill="#0A0D12"/>
<path d="M172.613 33.0001V31.2181C171.668 32.5681 170.237 33.2701 168.266 33.2701C165.269 33.2701 163.271 31.5151 163.271 28.8151C163.271 26.0071 165.539 24.4951 169.751 24.4951C170.561 24.4951 171.263 24.5491 172.154 24.6571V23.7931C172.154 22.1731 171.236 21.2281 169.67 21.2281C168.05 21.2281 167.078 22.1731 166.943 23.7931H163.568C163.784 20.4721 166.187 18.3121 169.67 18.3121C173.45 18.3121 175.664 20.3911 175.664 23.9281V33.0001H172.613ZM166.808 28.7071C166.808 29.9221 167.672 30.6781 169.076 30.6781C170.993 30.6781 172.154 29.6251 172.154 27.9511V26.9251C171.263 26.7901 170.642 26.7361 169.994 26.7361C167.861 26.7361 166.808 27.4111 166.808 28.7071Z" fill="#0A0D12"/>
<path d="M192.209 25.7911C192.209 30.0031 189.698 33.2701 185.81 33.2701C183.947 33.2701 182.381 32.4331 181.274 30.9211V33.0001H177.818V13.6141H181.571V20.4451C182.624 19.0411 184.082 18.3121 185.81 18.3121C189.698 18.3121 192.209 21.5251 192.209 25.7911ZM188.348 25.7911C188.348 23.0371 186.809 21.6331 184.973 21.6331C183.164 21.6331 181.598 23.0101 181.598 25.7371C181.598 28.4641 183.11 29.9221 184.973 29.9221C186.809 29.9221 188.348 28.4911 188.348 25.7911Z" fill="#0A0D12"/>
<path d="M121.19 33.2431C125.132 33.2431 127.913 30.9211 127.94 27.6271H124.295C124.187 29.2741 122.999 30.2731 121.136 30.2731C119.192 30.2731 118.058 29.3011 118.058 27.6811C118.058 26.0881 119.381 25.1431 121.622 25.1431H123.593V22.1731H121.838C120.002 22.1731 118.895 21.2551 118.895 19.7701C118.895 18.3391 119.84 17.4481 121.406 17.4481C122.945 17.4481 123.917 18.4201 123.944 20.0131H127.589C127.562 16.8541 124.808 14.4781 121.217 14.4781C117.383 14.4781 115.034 16.5571 115.034 19.5001C115.034 21.1741 116.006 22.4971 117.761 23.4151C115.493 24.1441 114.197 25.6021 114.197 27.5731C114.197 30.9481 117.005 33.2431 121.19 33.2431Z" fill="#0A0D12"/>
</svg>
