<svg width="158" height="48" viewBox="0 0 158 48" fill="none" xmlns="http://www.w3.org/2000/svg">
<path d="M32 26C32 31.5228 27.5228 36 22 36C16.4772 36 12 31.5228 12 26H4C4 35.9411 12.0589 44 22 44C31.9411 44 40 35.9411 40 26C40 16.0589 31.9411 8 22 8V16C27.5228 16 32 20.4772 32 26Z" fill="#004EEB"/>
<path opacity="0.5" d="M10 4C10 9.52285 5.52285 14 0 14V22C9.94113 22 18 13.9411 18 4H10Z" fill="#004EEB"/>
<path d="M50.0001 13.8301H63.7701V17.6911H54.7251V21.4711H63.4461V25.3051H54.7251V29.1391H63.9861V33.0001H50.0001V13.8301Z" fill="#0A0D12"/>
<path d="M65.2532 23.1991C65.7932 20.0401 68.1692 18.3661 72.1652 18.3661C76.7552 18.3661 79.0232 20.4721 79.0232 24.6571V28.7341C79.0232 29.7871 79.4552 29.9491 79.9412 29.9491H80.4272V33.0001L79.7792 33.0541C79.0232 33.0811 75.7292 33.5941 75.2432 30.8401C74.4872 32.3791 72.8672 33.3241 70.1402 33.3241C67.2242 33.3241 65.0102 31.7581 65.0102 29.2201C65.0102 26.6551 66.9272 25.5751 70.4642 24.8731L74.2982 24.0901C74.2982 22.1191 73.6232 21.2011 72.1382 21.2011C70.8962 21.2011 70.1402 21.9301 69.8972 23.3881L65.2532 23.1991ZM69.7892 29.0311C69.7892 29.8681 70.4642 30.4621 71.7332 30.4621C73.2992 30.4621 74.3792 29.2741 74.3792 26.9251V26.7901L72.3542 27.1681C70.8152 27.4381 69.7892 27.7621 69.7892 29.0311Z" fill="#0A0D12"/>
<path d="M90.1466 23.4151C89.9306 22.1461 88.9316 21.3901 87.8516 21.3901C86.7176 21.3901 85.9076 21.9841 85.9616 22.9291C86.0156 23.8471 87.0416 24.2791 88.3106 24.4951C92.8736 25.1701 94.8176 26.3311 94.8176 29.0041C94.8176 31.8661 92.1716 33.3241 88.2296 33.3241C83.7746 33.3241 81.0746 31.5151 80.8316 28.4371L85.5026 28.2481C85.7456 29.5171 86.6366 30.2191 88.0676 30.2191C89.0396 30.2191 90.0926 29.8411 90.0386 28.9501C90.0116 27.8971 88.8776 27.6271 87.5546 27.3841C83.1536 26.5741 81.1826 25.4941 81.1826 22.9291C81.1826 20.0401 83.6126 18.3391 87.9866 18.3391C91.8206 18.3391 94.3046 20.1481 94.7636 23.2531L90.1466 23.4151Z" fill="#0A0D12"/>
<path d="M94.5077 18.6901H98.8277L102.176 28.1671L105.362 18.6901H109.682L104.12 34.2151C103.418 36.1861 102.095 37.0501 99.8807 37.0501H97.0727V33.7561H98.9357C99.8537 33.7561 100.313 33.5131 100.583 32.8381L100.88 32.1091H99.6377L94.5077 18.6901Z" fill="#0A0D12"/>
<path d="M125.686 13.8301V17.6911H120.016V33.0001H115.318V17.6911H109.648V13.8301H125.686Z" fill="#0A0D12"/>
<path d="M125.797 23.1991C126.337 20.0401 128.713 18.3661 132.709 18.3661C137.299 18.3661 139.567 20.4721 139.567 24.6571V28.7341C139.567 29.7871 139.999 29.9491 140.485 29.9491H140.971V33.0001L140.323 33.0541C139.567 33.0811 136.273 33.5941 135.787 30.8401C135.031 32.3791 133.41 33.3241 130.684 33.3241C127.768 33.3241 125.554 31.7581 125.554 29.2201C125.554 26.6551 127.47 25.5751 131.007 24.8731L134.842 24.0901C134.842 22.1191 134.167 21.2011 132.682 21.2011C131.44 21.2011 130.684 21.9301 130.441 23.3881L125.797 23.1991ZM130.333 29.0311C130.333 29.8681 131.008 30.4621 132.277 30.4621C133.843 30.4621 134.923 29.2741 134.923 26.9251V26.7901L132.898 27.1681C131.359 27.4381 130.333 27.7621 130.333 29.0311Z" fill="#0A0D12"/>
<path d="M152.359 18.6631H157.381L152.332 25.7371L157.516 33.0001H152.494L149.686 28.6261L146.851 33.0001H141.829L147.013 25.7371L141.964 18.6631H146.959L149.686 22.8211L152.359 18.6631Z" fill="#0A0D12"/>
</svg>
