<svg width="163" height="48" viewBox="0 0 163 48" fill="none" xmlns="http://www.w3.org/2000/svg">
<path d="M21.3314 18.6667V8H-0.00195312V18.6667L21.3314 18.6667Z" fill="#EAAA08"/>
<path d="M21.3309 29.3332C15.4399 29.3332 10.6643 34.1089 10.6643 39.9999L-0.00064994 40.0003L-0.000649936 39.725C0.145943 28.1153 9.56641 18.7403 21.1937 18.667L31.998 18.6675V40.0008H21.3314L21.3309 29.3332Z" fill="#EAAA08"/>
<path d="M42 32.9994V13.3164H47.076V28.5174H55.959V32.9994H42Z" fill="#0A0D12"/>
<path d="M64.3611 33.2694C62.7231 33.2694 61.3551 32.9634 60.2571 32.3514C59.1591 31.7214 58.3311 30.8394 57.7731 29.7054C57.2331 28.5714 56.9631 27.2574 56.9631 25.7634V25.4664C56.9631 23.8824 57.2601 22.5504 57.8541 21.4704C58.4481 20.3724 59.2671 19.5354 60.3111 18.9594C61.3731 18.3834 62.5881 18.0954 63.9561 18.0954C65.4861 18.0954 66.7821 18.3834 67.8441 18.9594C68.9241 19.5174 69.7431 20.3094 70.3011 21.3354C70.8591 22.3434 71.1381 23.5314 71.1381 24.8994V26.8974H61.7961V27.5724C61.7961 28.1844 62.0211 28.6884 62.4711 29.0844C62.9211 29.4804 63.4971 29.6784 64.1991 29.6784C64.8291 29.6784 65.3421 29.5524 65.7381 29.3004C66.1341 29.0304 66.3681 28.6794 66.4401 28.2474H70.9761C70.9221 29.2374 70.6071 30.1104 70.0311 30.8664C69.4551 31.6224 68.6811 32.2164 67.7091 32.6484C66.7371 33.0624 65.6211 33.2694 64.3611 33.2694ZM61.7961 23.8734V24.0084H66.4401V23.8734C66.4401 23.0994 66.2241 22.5324 65.7921 22.1724C65.3601 21.7944 64.8021 21.6054 64.1181 21.6054C63.4341 21.6054 62.8761 21.8034 62.4441 22.1994C62.0121 22.5774 61.7961 23.1354 61.7961 23.8734Z" fill="#0A0D12"/>
<path d="M77.779 33.2694C76.465 33.2694 75.394 32.9724 74.566 32.3784C73.756 31.7844 73.162 30.9474 72.784 29.8674C72.406 28.7694 72.217 27.5004 72.217 26.0604V25.3584C72.217 22.7844 72.721 20.9394 73.729 19.8234C74.737 18.6894 76.087 18.1224 77.779 18.1224C78.697 18.1224 79.525 18.3204 80.263 18.7164C81.019 19.0944 81.577 19.6524 81.937 20.3904H82.153L82.396 18.3654H86.905V32.9994H82.153V31.0014H81.937C81.577 31.7214 81.019 32.2794 80.263 32.6754C79.525 33.0714 78.697 33.2694 77.779 33.2694ZM79.723 29.4084C80.461 29.4084 81.046 29.1924 81.478 28.7604C81.91 28.3284 82.126 27.6984 82.126 26.8704V24.4944C82.126 23.6844 81.91 23.0634 81.478 22.6314C81.046 22.1814 80.461 21.9564 79.723 21.9564C78.949 21.9564 78.346 22.1814 77.914 22.6314C77.5 23.0814 77.293 23.7024 77.293 24.4944V26.9244C77.293 27.6984 77.5 28.3104 77.914 28.7604C78.346 29.1924 78.949 29.4084 79.723 29.4084Z" fill="#0A0D12"/>
<path d="M89.706 37.5084V18.3654H94.215L94.485 20.3904H94.701C95.0611 19.6524 95.6101 19.0944 96.348 18.7164C97.104 18.3204 97.941 18.1224 98.859 18.1224C100.191 18.1224 101.262 18.4194 102.072 19.0134C102.882 19.6074 103.476 20.4534 103.854 21.5514C104.232 22.6314 104.421 23.9004 104.421 25.3584V26.0604C104.421 28.6164 103.917 30.4614 102.909 31.5954C101.901 32.7114 100.551 33.2694 98.859 33.2694C97.941 33.2694 97.104 33.0714 96.348 32.6754C95.6101 32.2794 95.0611 31.7214 94.701 31.0014H94.485V37.5084H89.706ZM96.915 29.4084C97.689 29.4084 98.283 29.1924 98.697 28.7604C99.129 28.3104 99.345 27.6984 99.345 26.9244V24.4944C99.345 23.7024 99.129 23.0814 98.697 22.6314C98.283 22.1814 97.689 21.9564 96.915 21.9564C96.195 21.9564 95.6101 22.1814 95.16 22.6314C94.7281 23.0634 94.512 23.6844 94.512 24.4944V26.8704C94.512 27.6984 94.7281 28.3284 95.16 28.7604C95.6101 29.1924 96.195 29.4084 96.915 29.4084Z" fill="#0A0D12"/>
<path d="M104.944 37.5084V33.7824H110.02V31.4064L104.269 18.3654H109.237L111.829 25.7634L112.261 27.1674H112.396L112.828 25.7634L115.528 18.3654H120.469L114.772 31.4064V34.5654C114.772 35.5554 114.484 36.2934 113.908 36.7794C113.35 37.2654 112.603 37.5084 111.667 37.5084H104.944Z" fill="#0A0D12"/>
<path d="M127.539 33.2694C125.901 33.2694 124.533 32.9634 123.435 32.3514C122.337 31.7214 121.509 30.8394 120.951 29.7054C120.411 28.5714 120.141 27.2574 120.141 25.7634V25.4664C120.141 23.8824 120.438 22.5504 121.032 21.4704C121.626 20.3724 122.445 19.5354 123.489 18.9594C124.551 18.3834 125.766 18.0954 127.134 18.0954C128.664 18.0954 129.96 18.3834 131.022 18.9594C132.102 19.5174 132.921 20.3094 133.479 21.3354C134.037 22.3434 134.316 23.5314 134.316 24.8994V26.8974H124.974V27.5724C124.974 28.1844 125.199 28.6884 125.649 29.0844C126.099 29.4804 126.675 29.6784 127.377 29.6784C128.007 29.6784 128.52 29.5524 128.916 29.3004C129.312 29.0304 129.546 28.6794 129.618 28.2474H134.154C134.1 29.2374 133.785 30.1104 133.209 30.8664C132.633 31.6224 131.859 32.2164 130.887 32.6484C129.915 33.0624 128.799 33.2694 127.539 33.2694ZM124.974 23.8734V24.0084H129.618V23.8734C129.618 23.0994 129.402 22.5324 128.97 22.1724C128.538 21.7944 127.98 21.6054 127.296 21.6054C126.612 21.6054 126.054 21.8034 125.622 22.1994C125.19 22.5774 124.974 23.1354 124.974 23.8734Z" fill="#0A0D12"/>
<path d="M140.957 33.2694C139.643 33.2694 138.572 32.9724 137.744 32.3784C136.934 31.7844 136.34 30.9474 135.962 29.8674C135.584 28.7694 135.395 27.5004 135.395 26.0604V25.3584C135.395 22.7844 135.899 20.9394 136.907 19.8234C137.915 18.6894 139.265 18.1224 140.957 18.1224C141.875 18.1224 142.703 18.3204 143.441 18.7164C144.197 19.0944 144.755 19.6524 145.115 20.3904H145.331L145.574 18.3654H150.083V32.9994H145.331V31.0014H145.115C144.755 31.7214 144.197 32.2794 143.441 32.6754C142.703 33.0714 141.875 33.2694 140.957 33.2694ZM142.901 29.4084C143.639 29.4084 144.224 29.1924 144.656 28.7604C145.088 28.3284 145.304 27.6984 145.304 26.8704V24.4944C145.304 23.6844 145.088 23.0634 144.656 22.6314C144.224 22.1814 143.639 21.9564 142.901 21.9564C142.127 21.9564 141.524 22.1814 141.092 22.6314C140.678 23.0814 140.471 23.7024 140.471 24.4944V26.9244C140.471 27.6984 140.678 28.3104 141.092 28.7604C141.524 29.1924 142.127 29.4084 142.901 29.4084Z" fill="#0A0D12"/>
<path d="M152.884 32.9994V21.9564C152.884 20.8764 153.208 20.0124 153.856 19.3644C154.522 18.6984 155.386 18.3654 156.448 18.3654H162.388V22.1994H157.663V32.9994H152.884Z" fill="#0A0D12"/>
</svg>
