<svg width="20" height="20" viewBox="0 0 20 20" fill="none" xmlns="http://www.w3.org/2000/svg">
<path d="M15 3.33464H14.1667V2.5013C14.1667 2.28029 14.0789 2.06833 13.9226 1.91205C13.7663 1.75577 13.5543 1.66797 13.3333 1.66797C13.1123 1.66797 12.9004 1.75577 12.7441 1.91205C12.5878 2.06833 12.5 2.28029 12.5 2.5013V3.33464H7.5V2.5013C7.5 2.28029 7.4122 2.06833 7.25592 1.91205C7.09964 1.75577 6.88768 1.66797 6.66667 1.66797C6.44565 1.66797 6.23369 1.75577 6.07741 1.91205C5.92113 2.06833 5.83333 2.28029 5.83333 2.5013V3.33464H5C4.33696 3.33464 3.70107 3.59803 3.23223 4.06687C2.76339 4.53571 2.5 5.17159 2.5 5.83464V15.8346C2.5 16.4977 2.76339 17.1336 3.23223 17.6024C3.70107 18.0712 4.33696 18.3346 5 18.3346H15C15.663 18.3346 16.2989 18.0712 16.7678 17.6024C17.2366 17.1336 17.5 16.4977 17.5 15.8346V5.83464C17.5 5.17159 17.2366 4.53571 16.7678 4.06687C16.2989 3.59803 15.663 3.33464 15 3.33464ZM5 5.0013H5.83333V5.83464C5.83333 6.05565 5.92113 6.26761 6.07741 6.42389C6.23369 6.58017 6.44565 6.66797 6.66667 6.66797C6.88768 6.66797 7.09964 6.58017 7.25592 6.42389C7.4122 6.26761 7.5 6.05565 7.5 5.83464V5.0013H12.5V5.83464C12.5 6.05565 12.5878 6.26761 12.7441 6.42389C12.9004 6.58017 13.1123 6.66797 13.3333 6.66797C13.5543 6.66797 13.7663 6.58017 13.9226 6.42389C14.0789 6.26761 14.1667 6.05565 14.1667 5.83464V5.0013H15C15.221 5.0013 15.433 5.0891 15.5893 5.24538C15.7455 5.40166 15.8333 5.61362 15.8333 5.83464V9.16797H4.16667V5.83464C4.16667 5.61362 4.25446 5.40166 4.41074 5.24538C4.56702 5.0891 4.77899 5.0013 5 5.0013ZM15 16.668H5C4.77899 16.668 4.56702 16.5802 4.41074 16.4239C4.25446 16.2676 4.16667 16.0556 4.16667 15.8346V10.8346H15.8333V15.8346C15.8333 16.0556 15.7455 16.2676 15.5893 16.4239C15.433 16.5802 15.221 16.668 15 16.668Z" fill="#4C4C4C"/>
<path d="M6.66683 14.1667C7.12707 14.1667 7.50016 13.7936 7.50016 13.3333C7.50016 12.8731 7.12707 12.5 6.66683 12.5C6.20659 12.5 5.8335 12.8731 5.8335 13.3333C5.8335 13.7936 6.20659 14.1667 6.66683 14.1667Z" fill="#4C4C4C"/>
<path d="M13.3332 12.5H9.99984C9.77882 12.5 9.56686 12.5878 9.41058 12.7441C9.2543 12.9004 9.1665 13.1123 9.1665 13.3333C9.1665 13.5543 9.2543 13.7663 9.41058 13.9226C9.56686 14.0789 9.77882 14.1667 9.99984 14.1667H13.3332C13.5542 14.1667 13.7661 14.0789 13.9224 13.9226C14.0787 13.7663 14.1665 13.5543 14.1665 13.3333C14.1665 13.1123 14.0787 12.9004 13.9224 12.7441C13.7661 12.5878 13.5542 12.5 13.3332 12.5Z" fill="#4C4C4C"/>
</svg>
