<svg width="17" height="18" viewBox="0 0 17 18" fill="none" xmlns="http://www.w3.org/2000/svg">
<path d="M8.33334 0.666016C6.68516 0.666016 5.07399 1.15476 3.70358 2.07044C2.33318 2.98611 1.26507 4.2876 0.634341 5.81032C0.0036107 7.33304 -0.161417 9.00859 0.160126 10.6251C0.48167 12.2416 1.27534 13.7265 2.44078 14.8919C3.60622 16.0573 5.09108 16.851 6.70758 17.1726C8.32409 17.4941 9.99965 17.3291 11.5224 16.6983C13.0451 16.0676 14.3466 14.9995 15.2622 13.6291C16.1779 12.2587 16.6667 10.6475 16.6667 8.99935C16.6667 7.905 16.4511 6.82137 16.0323 5.81032C15.6135 4.79927 14.9997 3.88061 14.2259 3.10679C13.4521 2.33297 12.5334 1.71914 11.5224 1.30035C10.5113 0.881564 9.42769 0.666016 8.33334 0.666016ZM8.33334 15.666C7.0148 15.666 5.72586 15.275 4.62954 14.5425C3.53321 13.8099 2.67872 12.7687 2.17414 11.5506C1.66956 10.3324 1.53753 8.99195 1.79477 7.69875C2.052 6.40554 2.68694 5.21765 3.61929 4.2853C4.55164 3.35295 5.73953 2.71802 7.03274 2.46078C8.32594 2.20355 9.66639 2.33557 10.8846 2.84015C12.1027 3.34474 13.1439 4.19922 13.8765 5.29555C14.609 6.39188 15 7.68081 15 8.99935C15 10.7675 14.2976 12.4632 13.0474 13.7134C11.7971 14.9636 10.1014 15.666 8.33334 15.666Z" fill="#4C4C4C"/>
<path d="M10.5835 5.99019L7.43349 10.1569L6.07516 8.39852C5.93923 8.22392 5.73952 8.11046 5.51994 8.08312C5.30037 8.05577 5.07893 8.11676 4.90432 8.25269C4.72972 8.38861 4.61627 8.58833 4.58892 8.8079C4.56157 9.02747 4.62257 9.24892 4.75849 9.42352L6.78349 12.0152C6.86197 12.1145 6.96204 12.1946 7.07611 12.2495C7.19018 12.3044 7.31525 12.3325 7.44182 12.3319C7.56909 12.3315 7.69459 12.3021 7.80871 12.2458C7.92283 12.1894 8.02253 12.1077 8.10016 12.0069L11.9085 7.00685C12.0433 6.83004 12.1024 6.60692 12.0727 6.38656C12.043 6.16621 11.927 5.96667 11.7502 5.83185C11.5733 5.69703 11.3502 5.63798 11.1299 5.66767C10.9095 5.69736 10.71 5.81338 10.5752 5.99019H10.5835Z" fill="#4C4C4C"/>
</svg>
