<svg width="12" height="16" viewBox="0 0 12 16" fill="none" xmlns="http://www.w3.org/2000/svg">
<path d="M5.99984 7.16667C6.65911 7.16667 7.30357 6.97117 7.85174 6.6049C8.3999 6.23863 8.82714 5.71803 9.07944 5.10895C9.33173 4.49986 9.39774 3.82964 9.26912 3.18303C9.1405 2.53643 8.82304 1.94249 8.35686 1.47631C7.89069 1.01014 7.29674 0.692668 6.65014 0.564051C6.00354 0.435433 5.33331 0.501444 4.72423 0.753736C4.11514 1.00603 3.59454 1.43327 3.22827 1.98143C2.862 2.5296 2.6665 3.17406 2.6665 3.83334C2.6665 4.71739 3.01769 5.56524 3.64281 6.19036C4.26794 6.81548 5.11578 7.16667 5.99984 7.16667ZM5.99984 2.16667C6.32947 2.16667 6.65171 2.26442 6.92579 2.44755C7.19987 2.63069 7.41349 2.89099 7.53964 3.19553C7.66578 3.50007 7.69879 3.83518 7.63448 4.15849C7.57017 4.48179 7.41144 4.77876 7.17835 5.01185C6.94526 5.24493 6.64829 5.40367 6.32499 5.46798C6.00169 5.53229 5.66658 5.49928 5.36203 5.37313C5.05749 5.24699 4.79719 5.03337 4.61405 4.75929C4.43092 4.4852 4.33317 4.16297 4.33317 3.83334C4.33317 3.39131 4.50877 2.96738 4.82133 2.65482C5.13389 2.34226 5.55781 2.16667 5.99984 2.16667Z" fill="#4C4C4C"/>
<path d="M5.99984 8.83203C4.45274 8.83203 2.96901 9.44661 1.87505 10.5406C0.781085 11.6345 0.166504 13.1183 0.166504 14.6654C0.166504 14.8864 0.254301 15.0983 0.410582 15.2546C0.566862 15.4109 0.778823 15.4987 0.999837 15.4987C1.22085 15.4987 1.43281 15.4109 1.58909 15.2546C1.74537 15.0983 1.83317 14.8864 1.83317 14.6654C1.83317 13.5603 2.27216 12.5005 3.05356 11.7191C3.83496 10.9377 4.89477 10.4987 5.99984 10.4987C7.10491 10.4987 8.16471 10.9377 8.94612 11.7191C9.72752 12.5005 10.1665 13.5603 10.1665 14.6654C10.1665 14.8864 10.2543 15.0983 10.4106 15.2546C10.5669 15.4109 10.7788 15.4987 10.9998 15.4987C11.2209 15.4987 11.4328 15.4109 11.5891 15.2546C11.7454 15.0983 11.8332 14.8864 11.8332 14.6654C11.8332 13.1183 11.2186 11.6345 10.1246 10.5406C9.03066 9.44661 7.54693 8.83203 5.99984 8.83203Z" fill="#4C4C4C"/>
</svg>
